<svg width="32" height="32" viewBox="0 0 32 32" fill="none" xmlns="http://www.w3.org/2000/svg">
<path d="M16 8V24M12 20.2427L13.172 21.1213C14.7333 22.2933 17.2653 22.2933 18.828 21.1213C20.3907 19.9493 20.3907 18.0507 18.828 16.8787C18.048 16.292 17.024 16 16 16C15.0333 16 14.0667 15.7067 13.3293 15.1213C11.8547 13.9493 11.8547 12.0507 13.3293 10.8787C14.804 9.70667 17.196 9.70667 18.6707 10.8787L19.224 11.3187M28 16C28 17.5759 27.6896 19.1363 27.0866 20.5922C26.4835 22.0481 25.5996 23.371 24.4853 24.4853C23.371 25.5996 22.0481 26.4835 20.5922 27.0866C19.1363 27.6896 17.5759 28 16 28C14.4241 28 12.8637 27.6896 11.4078 27.0866C9.95189 26.4835 8.62902 25.5996 7.51472 24.4853C6.40042 23.371 5.5165 22.0481 4.91345 20.5922C4.31039 19.1363 4 17.5759 4 16C4 12.8174 5.26428 9.76516 7.51472 7.51472C9.76516 5.26428 12.8174 4 16 4C19.1826 4 22.2348 5.26428 24.4853 7.51472C26.7357 9.76516 28 12.8174 28 16Z" stroke="black" stroke-width="2" stroke-linecap="round" stroke-linejoin="round"/>
</svg>
